Coordinates
version=1
nRows=9
nColumns=63
inDegrees=yes

Units are S.I. units (second, meters, Newtons, ...)
If the header above contains a line with 'inDegrees', this indicates whether rotational values are in degrees (yes) or radians (no).

endheader
time	pelvis_tilt	pelvis_list	pelvis_rotation	pelvis_tx	pelvis_ty	pelvis_tz	hip_flexion_r	hip_adduction_r	hip_rotation_r	knee_angle_r	knee_angle_r_beta	ankle_angle_r	subtalar_angle_r	mtp_angle_r	hip_flexion_l	hip_adduction_l	hip_rotation_l	knee_angle_l	knee_angle_l_beta	ankle_angle_l	subtalar_angle_l	mtp_angle_l	L5_S1_Flex_Ext	L5_S1_Lat_Bending	L5_S1_axial_rotation	L4_L5_Flex_Ext	L4_L5_Lat_Bending	L4_L5_axial_rotation	L3_L4_Flex_Ext	L3_L4_Lat_Bending	L3_L4_axial_rotation	L2_L3_Flex_Ext	L2_L3_Lat_Bending	L2_L3_axial_rotation	L1_L2_Flex_Ext	L1_L2_Lat_Bending	L1_L2_axial_rotation	L1_T12_Flex_Ext	L1_T12_Lat_Bending	L1_T12_axial_rotation	Abs_r3	Abs_r2	Abs_r1	Abs_t1	Abs_t2	neck_flexion	neck_bending	neck_rotation	arm_flex_r	arm_add_r	arm_rot_r	elbow_flex_r	pro_sup_r	wrist_flex_r	wrist_dev_r	arm_flex_l	arm_add_l	arm_rot_l	elbow_flex_l	pro_sup_l	wrist_flex_l	wrist_dev_l
6.118644	-0.474333	4.133675	96.319489	0.097291	1.012919	0.179295	5.251288	-5.469644	-4.150797	17.285369	0.301687	20.806186	-5.833376	0.000000	3.703298	2.406890	-4.978212	16.195273	0.282661	12.545852	-3.474111	0.000000	-0.029195	-0.781116	-0.275063	-0.054219	-1.038885	-0.292255	-0.047965	-1.899206	-0.292255	-0.033367	-1.899206	-0.240680	-0.027111	-1.592852	-0.223489	-0.016682	-1.209949	-0.206297	-0.208540	-8.836143	-1.529819	0.000000	0.000000	22.529082	-2.964340	-9.265820	-6.973068	-15.818146	7.944307	64.339090	87.433703	0.181088	2.987002	-1.631353	-20.644024	13.721260	37.681190	88.138795	-4.501564	-0.634802
6.135593	-0.576363	4.242363	96.313347	0.096960	1.013896	0.178487	4.948934	-5.581825	-4.191625	17.082231	0.298141	20.497423	-5.570265	0.000000	3.380968	2.483376	-5.378560	16.058597	0.280275	12.424675	-3.105108	0.000000	-0.022491	-0.768079	-0.291655	-0.041768	-1.021546	-0.309884	-0.036950	-1.867508	-0.309884	-0.025705	-1.867508	-0.255198	-0.020885	-1.566268	-0.236970	-0.012851	-1.189755	-0.218741	-0.160650	-8.688669	-1.622099	0.000000	0.000000	21.392631	-2.848076	-8.726939	-7.083970	-16.245391	7.128088	65.571477	87.280642	0.619079	3.767229	-1.745664	-20.992045	12.111472	38.968719	88.242800	-3.786071	-0.148427
6.152542	-0.650823	4.359188	96.172197	0.096760	1.014933	0.177750	4.672153	-5.658206	-4.126040	16.878950	0.294593	20.144985	-5.324503	0.000000	3.007024	2.545480	-5.833434	15.785833	0.275515	12.287067	-2.696233	0.000000	-0.015207	-0.748334	-0.282088	-0.028241	-0.995284	-0.299719	-0.024984	-1.819499	-0.299719	-0.017380	-1.819499	-0.246827	-0.014122	-1.526003	-0.229197	-0.008689	-1.159169	-0.211566	-0.108624	-8.465304	-1.568891	0.000000	0.000000	20.151122	-2.639254	-8.100393	-7.100153	-16.791367	6.248440	66.591671	87.144982	1.021611	4.823268	-1.769343	-21.458886	10.513291	40.028701	88.297210	-2.881576	0.277176
6.169492	-0.691208	4.478154	95.881242	0.096696	1.015950	0.177102	4.449883	-5.689956	-3.914712	16.704761	0.291553	19.796566	-5.124137	0.000000	2.606714	2.596295	-6.258623	15.396649	0.268722	12.119905	-2.373125	0.000000	-0.007784	-0.720102	-0.244014	-0.014456	-0.957735	-0.259265	-0.012789	-1.750855	-0.259265	-0.008897	-1.750855	-0.213512	-0.007229	-1.468431	-0.198261	-0.004448	-1.115438	-0.183011	-0.055603	-8.145935	-1.357133	0.000000	0.000000	18.859094	-2.334553	-7.313338	-6.984904	-17.443776	5.387522	67.271370	87.050486	1.468009	6.033635	-1.650613	-21.997035	9.081344	40.764347	88.264894	-1.775337	0.745430
6.186441	-0.709157	4.586095	95.483330	0.096763	1.016880	0.176515	4.285059	-5.695459	-3.625779	16.548638	0.288828	19.502745	-4.907257	0.000000	2.206859	2.633792	-6.716398	14.907298	0.260181	11.959389	-1.955586	0.000000	0.000984	-0.686103	-0.188540	0.001827	-0.912517	-0.200324	0.001616	-1.668192	-0.200324	0.001124	-1.668192	-0.164972	0.000913	-1.399102	-0.153189	0.000562	-1.062774	-0.141405	0.007027	-7.761338	-1.048603	0.000000	0.000000	17.596899	-1.897260	-6.366647	-6.714750	-18.139271	4.643453	67.495964	86.993102	1.854844	7.296605	-1.409814	-22.558244	7.792262	41.139226	88.193599	-0.474280	1.226423
6.203390	-0.698921	4.669609	94.997697	0.096931	1.017620	0.176025	4.212236	-5.669902	-3.266103	16.449339	0.287095	19.311805	-4.703220	0.000000	1.855047	2.667165	-7.063281	14.372682	0.250851	11.796404	-1.666580	0.000000	0.010363	-0.644989	-0.120665	0.019245	-0.857836	-0.128206	0.017025	-1.568227	-0.128206	0.011844	-1.568227	-0.105582	0.009623	-1.315262	-0.098040	0.005921	-0.999088	-0.090498	0.074021	-7.296248	-0.671101	0.000000	0.000000	16.467857	-1.366130	-5.208213	-6.265829	-18.850807	4.097543	67.185314	86.994322	2.206806	8.466178	-1.058860	-23.113535	6.621107	41.148612	88.177249	0.979937	1.714884
6.220339	-0.654219	4.720586	94.450701	0.097162	1.018115	0.175641	4.229456	-5.617055	-2.903718	16.392609	0.286105	19.253141	-4.427592	0.000000	1.576409	2.668853	-7.413789	13.836308	0.241489	11.702971	-1.263960	0.000000	0.020484	-0.596229	-0.042757	0.038040	-0.792985	-0.045429	0.033653	-1.449672	-0.045429	0.023411	-1.449672	-0.037412	0.019021	-1.215831	-0.034740	0.011704	-0.923559	-0.032068	0.146313	-6.744667	-0.237801	0.000000	0.000000	15.541427	-0.760322	-3.875134	-5.665065	-19.533364	3.773802	66.320538	87.045641	2.409578	9.438920	-0.500717	-23.632135	6.171656	40.640835	88.012857	2.351633	1.927287
6.237288	-0.598790	4.742830	93.875329	0.097484	1.018284	0.175396	4.346722	-5.553789	-2.510144	16.422974	0.286635	19.375248	-4.155727	0.000000	1.394559	2.659178	-7.734783	13.358725	0.233154	11.687204	-0.831528	0.000000	0.028200	-0.544532	0.041299	0.052370	-0.724228	0.043881	0.046330	-1.323976	0.043881	0.032230	-1.323976	0.036137	0.026187	-1.110411	0.033556	0.016114	-0.843481	0.030975	0.201431	-6.159860	0.229695	0.000000	0.000000	14.906892	-0.090934	-2.441243	-4.917813	-20.131800	3.714831	64.927365	87.149774	2.475302	10.212720	-0.042614	-24.359433	1.187056	40.629958	92.113695	3.388351	2.216503
6.254237	-0.483806	4.725245	93.329455	0.097692	1.018156	0.175307	4.544429	-5.449532	-2.212388	16.498247	0.287949	19.639315	-3.813721	0.000000	1.348838	2.592295	-7.992484	13.003382	0.226952	11.788164	-0.356949	0.000000	0.035036	-0.481587	0.118295	0.065065	-0.640511	0.125688	0.057560	-1.170932	0.125688	0.040042	-1.170932	0.103508	0.032534	-0.982053	0.096115	0.020019	-0.745979	0.088721	0.250256	-5.447814	0.657921	0.000000	0.000000	14.591668	0.561467	-0.845599	-4.051221	-20.670726	3.966195	63.042488	87.295517	2.335325	10.601722	0.738034	-24.830279	0.123094	39.556063	93.732631	4.106739	1.756777
